<svg width="354" height="354" viewBox="0 0 354 354" fill="none" xmlns="http://www.w3.org/2000/svg">
<rect width="354" height="354" fill="white"/>
<path d="M324.367 180.735C324.367 243.782 272.594 304.209 177.227 304.209C129.345 304.209 92.5835 291.277 67.8363 269.535C43.1286 247.829 30.0869 217.074 30.0869 180.735C30.0869 113.075 95.3759 59.3184 177.227 59.3184C259.077 59.3184 324.367 113.075 324.367 180.735Z" fill="#D1D2D7" stroke="black" stroke-width="6.1737"/>
<g filter="url(#filter0_f_318_2)">
<ellipse cx="177.344" cy="183.4" rx="66.8818" ry="56.5923" fill="#676575"/>
</g>
<path d="M304.816 117.033C308.589 105.371 313.871 76.9039 304.816 56.3249C293.498 30.6011 242.051 71.7591 234.848 82.0486" stroke="black" stroke-width="6.1737" stroke-linecap="round"/>
<path d="M276.006 100.57C285.267 96.4542 289.382 90.9963 273.948 92.3384C258.514 93.6805 251.311 93.3674 256.456 82.0489C261.427 71.1128 285.29 52.1718 297.415 49.3575" stroke="black" stroke-width="6.1737" stroke-linecap="round" stroke-linejoin="round"/>
<path d="M50.3263 117.033C46.5534 105.371 41.2715 76.9039 50.3263 56.3249C61.6447 30.6011 113.092 71.7591 120.295 82.0486" stroke="black" stroke-width="6.1737" stroke-linecap="round"/>
<path d="M79.1366 100.57C69.8761 96.4542 65.7603 90.9963 81.1945 92.3384C96.6288 93.6805 103.831 93.3674 98.6867 82.0489C93.7157 71.1128 69.853 52.1718 57.7273 49.3575" stroke="black" stroke-width="6.1737" stroke-linecap="round" stroke-linejoin="round"/>
<path d="M283.338 52.369C262.017 59.1489 241.968 77.9418 234.608 86.4907C230.158 91.2116 229.117 103.844 229.153 109.57H276.796C276.695 107.687 276.127 103.809 274.667 103.357C272.843 102.792 272.104 99.0994 274.102 98.1001C276.101 97.1009 281.445 94.7113 280.359 94.7113C279.49 94.7113 272.582 95.4061 269.236 95.7536C265.622 96.2746 261.062 95.9706 259.235 95.7536C254.501 94.8558 252.516 92.1779 252.115 90.9511C248.814 77.8376 271.555 59.7658 283.338 52.369Z" fill="#D1D2D7"/>
<path d="M71.8051 52.369C93.1257 59.1489 113.175 77.9418 120.535 86.4907C124.985 91.2116 126.026 103.844 125.99 109.57H78.3465C78.4479 107.687 79.0156 103.809 80.4754 103.357C82.3002 102.792 83.0388 99.0994 81.0402 98.1001C79.0417 97.1009 73.6977 94.7113 74.7839 94.7113C75.6528 94.7113 82.5609 95.4061 85.9063 95.7536C89.5211 96.2746 94.0803 95.9706 95.908 95.7536C100.642 94.8558 102.627 92.1779 103.028 90.9511C106.328 77.8376 83.5879 59.7658 71.8051 52.369Z" fill="#D1D2D7"/>
<path d="M305.792 70.0894C308.746 88.8036 305.55 115.835 303.011 112.28C300.471 108.725 291.637 99.5018 287.167 95.423C287.785 92.4259 285.719 90.8667 284.728 90.391C282.73 88.7259 276.205 89.0402 273.073 89.4763C261.846 90.2851 258.524 89.4169 258.266 88.8816C256.338 87.0391 260.534 80.4038 262.636 77.8467C275.84 61.7764 290.517 54.6879 297.812 52.369C301.855 53.7962 304.882 64.7384 305.792 70.0894Z" fill="#F9ADAD"/>
<path d="M49.3511 70.0894C46.3964 88.8036 49.5927 115.835 52.132 112.28C54.6714 108.725 63.5054 99.5018 67.9758 95.423C67.3574 92.4259 69.4238 90.8667 70.4149 90.391C72.413 88.7259 78.9376 89.0402 82.0695 89.4763C93.2969 90.2851 96.619 89.4169 96.8767 88.8816C98.8047 87.0391 94.6083 80.4038 92.5072 77.8467C79.3023 61.7764 64.6256 54.6879 57.3312 52.369C53.2874 53.7962 50.2605 64.7384 49.3511 70.0894Z" fill="#F9ADAD"/>
<circle cx="113.679" cy="150.895" r="30.8685" fill="#DBEEFF"/>
<circle cx="113.679" cy="150.895" r="25.2269" fill="#84AAD7"/>
<circle cx="113.679" cy="150.895" r="20.1179" fill="#231616"/>
<circle cx="126.963" cy="134.417" r="6.83389" fill="white"/>
<circle cx="241.464" cy="150.895" r="30.8685" fill="#DBEEFF"/>
<circle cx="241.464" cy="150.895" r="25.2269" fill="#84AAD7"/>
<circle cx="241.464" cy="150.895" r="20.1179" fill="#231616"/>
<circle cx="254.748" cy="134.417" r="6.83389" fill="white"/>
<path d="M167.51 199.769C165.728 201.966 165.329 203.494 165.5 200.5C166.169 200.351 166.842 200.1 167.51 199.769C168.636 198.38 170.315 196.724 172.75 195.774C174.479 194.061 175.968 192.253 177 191C177 191 179.36 193.675 182.227 196.2C183.848 197.009 185.101 198.113 186.063 199.153C187.105 199.812 188.111 200.302 189 200.5C189 203.768 188.372 201.649 186.063 199.153C184.789 198.346 183.461 197.287 182.227 196.2C180.791 195.484 179.066 195 177 195C175.377 195 173.969 195.299 172.75 195.774C171.152 197.358 169.348 198.86 167.51 199.769Z" fill="#ED8686"/>
<path d="M165.5 200.5C165.167 206.333 167 195 177 195C187 195 189 206.333 189 200.5C184.5 199.5 177 191 177 191C174.667 193.833 170 199.5 165.5 200.5Z" stroke="black"/>
<path d="M177.502 181.909C176.542 188.437 179.115 201.493 197.086 201.493" stroke="black" stroke-width="6.1737" stroke-linecap="round"/>
<path d="M176.951 181.909C177.911 188.437 175.338 201.493 157.367 201.493" stroke="black" stroke-width="6.1737" stroke-linecap="round"/>
<path d="M164.795 177.695L162.935 176.384C162.295 175.933 161.729 175.384 161.259 174.757C157.542 169.811 161.071 162.745 167.258 162.745L187.188 162.745C193.522 162.745 197.012 170.103 193.004 175.008C192.625 175.472 192.192 175.888 191.715 176.249L190.358 177.274C182.835 182.956 172.502 183.126 164.795 177.695Z" fill="#202329" stroke="black" stroke-width="6.1737"/>
<defs>
<filter id="filter0_f_318_2" x="69.304" y="85.6501" width="216.08" height="195.501" filterUnits="userSpaceOnUse" color-interpolation-filters="sRGB">
<feFlood flood-opacity="0" result="BackgroundImageFix"/>
<feBlend mode="normal" in="SourceGraphic" in2="BackgroundImageFix" result="shape"/>
<feGaussianBlur stdDeviation="20.579" result="effect1_foregroundBlur_318_2"/>
</filter>
</defs>
</svg>
